{"title":"Aint Them Bodies Saints 2013 WEBRip 480p x264 - VYTO [P2PDL]","uid":8974280,"size":320819800,"categoryP":"video","categoryS":"movies","magnet":"?xt=urn:btih:e549cefa467d837bdbf80de47bf7d79b5a5c0b50&amp;dn=Aint+Them+Bodies+Saints+2013+WEBRip+480p+x264+-+VYTO+%5BP2PDL%5D&amp;tr=udp%3A%2F%2Ftracker.openbittorrent.com%3A80&amp;tr=udp%3A%2F%2Fopen.demonii.com%3A1337&amp;tr=udp%3A%2F%2Ftracker.coppersurfer.tk%3A6969&amp;tr=udp%3A%2F%2Fexodus.desync.com%3A6969","seeders":0,"leechers":1,"uploader":"ValidusVyto","files":-1,"time":1380398896,"description":"_______ Visit us at our Semi Public Bittorrent Community ________\n  &lt;a href=&quot;\nhttp://p2pdl.com&quot; rel=&quot;nofollow&quot; target=&quot;_NEW&quot;&gt;\nhttp://p2pdl.com&lt;/a&gt;  _____________________________ &lt;a href=&quot; http://p2pdl.com&quot; rel=&quot;nofollow&quot; target=&quot;_NEW&quot;&gt; http://p2pdl.com&lt;/a&gt;\n\n\n\nAint Them Bodies Saints 2013 WEBRip 480p x264 - VYTO\n\n\nGenre:Crime | Drama | Romance\nPlot: The tale of an outlaw who escapes from prison and sets out across the Texas hills\nto reunite with his wife and the daughter he has never met.\nDirector: David Lowery\nStars: Channing Tatum, Jamie Foxx, Maggie Gyllenhaal.\nRated: Rooney Mara, Casey Affleck, Ben Foster.\n\n\nIMDb: &lt;a href=&quot;\nhttp://www.imdb.com/title/tt2388637/&quot; rel=&quot;nofollow&quot; target=&quot;_NEW&quot;&gt;\nhttp://www.imdb.com/title/tt2388637/&lt;/a&gt;\n\n\nFormat                         : MPEG-4\nFile size                      : 303 MiB\nDuration                       : 1h 35mn\nOverall bit rate               : 442 Kbps\n\nVideo\nFormat                         : AVC\nBit rate                       : 399 Kbps\nWidth                          : 720 pixels\nHeight                         : 304 pixels\nDisplay aspect ratio           : 2.35:1\nFrame rate mode                : Constant\nFrame rate                     : 23.976 fps\nBit depth                      : 10 bits\nStream size                    : 274 MiB (90%)\nWriting library                : x264 core 138 r2358\n\nAudio\nFormat                         : AAC\nBit rate mode                  : Variable\nBit rate                       : 40.0 Kbps\nChannel(s)                     : 2 channels\nChannel positions              : Front: L R\nSampling rate                  : 48.0 KHz\nStream size                    : 27.4 MiB (9%)\nLanguage                       : English\n\nSubtitle                       : Yes(English)\n\nSource                         : 720p.WEB-DL.DD5.1.h.264-fiend\n &lt;a href=&quot;\nhttp://ultraimg.com/images/p4voN.png&quot; rel=&quot;nofollow&quot; target=&quot;_NEW&quot;&gt;\nhttp://ultraimg.com/images/p4voN.png&lt;/a&gt; &lt;a href=&quot;\nhttp://ultraimg.com/images/wNsBk.png&quot; rel=&quot;nofollow&quot; target=&quot;_NEW&quot;&gt;\nhttp://ultraimg.com/images/wNsBk.png&lt;/a&gt; &lt;a href=&quot;\nhttp://ultraimg.com/images/oLw56.png&quot; rel=&quot;nofollow&quot; target=&quot;_NEW&quot;&gt;\nhttp://ultraimg.com/images/oLw56.png&lt;/a&gt; &lt;a href=&quot;\nhttp://ultraimg.com/images/PrNH.png&quot; rel=&quot;nofollow&quot; target=&quot;_NEW&quot;&gt;\nhttp://ultraimg.com/images/PrNH.png&lt;/a&gt; &lt;a href=&quot;\nhttp://ultraimg.com/images/yzJCv.png&quot; rel=&quot;nofollow&quot; target=&quot;_NEW&quot;&gt;\nhttp://ultraimg.com/images/yzJCv.png&lt;/a&gt; &lt;a href=&quot;\nhttp://ultraimg.com/images/sbIVt.png&quot; rel=&quot;nofollow&quot; target=&quot;_NEW&quot;&gt;\nhttp://ultraimg.com/images/sbIVt.png&lt;/a&gt;\n\n----------------------------------------------------------------------------------------------------\n\n\nEncoded using revolutionary 10bit encoding, which enables us to provide you more crispier \nand sharper images at small sizes, just make sure you follow our instructions without a fault.\nRecommend to you to use latest version of VLC player. Install K-Lite Codec Pack or shark007 codecs\nin case of any kind of problem in playback (For non-VLC Media Player users). Alternatively, install\nCore AVC codecs, the fastest decoder that there is coupled with Community Center Codec Pack and play\non Windows Media Player Classic. Check sample to be sure.\nEnjoy!\n\nEncoder Notes:Looking For Early Access To Anything You Can Provide DVDScr, R5, DVDR, BluRay, Direct\nAudio, Music Releases and Seedboxes. We require dedicated servers, so as to do more \nand fast releases of movies.\nIf You Got anything to offer please contact us at &quot;&lt;a class=&quot;__cf_email__&quot; href=&quot;/cdn-cgi/l/email-protection&quot; data-cfemail=&quot;b7c7c5d0f7dfc2c4df99d4d8da&quot;&gt;[email&amp;#160;protected]&lt;/a&gt;&lt;script cf-hash='f9e31' type=&quot;text/javascript&quot;&gt;\n/* &lt;![CDATA[ */!function(){try{var t=&quot;currentScript&quot;in document?document.currentScript:function(){for(var t=document.getElementsByTagName(&quot;script&quot;),e=t.length;e--;)if(t[e].getAttribute(&quot;cf-hash&quot;))return t[e]}();if(t&amp;&amp;t.previousSibling){var e,r,n,i,c=t.previousSibling,a=c.getAttribute(&quot;data-cfemail&quot;);if(a){for(e=&quot;&quot;,r=parseInt(a.substr(0,2),16),n=2;a.length-n;n+=2)i=parseInt(a.substr(n,2),16)^r,e+=String.fromCharCode(i);e=document.createTextNode(e),c.parentNode.replaceChild(e,c)}}}catch(u){}}();/* ]]&gt; */&lt;/script&gt;&quot;.\n\nFacebook Fan Page:  \nSearch P2PDL on FB and hit like!!!\n\nFor more of our team uploads visit @                                             &lt;a href=&quot; http://thepiratebay.se/user/vitamin_x&quot; rel=&quot;nofollow&quot; target=&quot;_NEW&quot;&gt; http://thepiratebay.se/user/vitamin_x&lt;/a&gt;","torrent":{"xt":"urn:btih:e549cefa467d837bdbf80de47bf7d79b5a5c0b50","amp;dn":"Aint+Them+Bodies+Saints+2013+WEBRip+480p+x264+-+VYTO+%5BP2PDL%5D","amp;tr":["udp%3A%2F%2Ftracker.openbittorrent.com%3A80","udp%3A%2F%2Fopen.demonii.com%3A1337","udp%3A%2F%2Ftracker.coppersurfer.tk%3A6969","udp%3A%2F%2Fexodus.desync.com%3A6969"],"infoHash":"e549cefa467d837bdbf80de47bf7d79b5a5c0b50","infoHashBuffer":{"type":"Buffer","data":[229,73,206,250,70,125,131,123,219,248,13,228,123,247,215,155,90,92,11,80]},"announce":[],"urlList":[]}}